<svg version="1.1" xmlns="http://www.w3.org/2000/svg" xmlns:xlink="http://www.w3.org/1999/xlink" viewBox="0 0 1024 559" preserveAspectRatio="xMidYMid meet">
  <g transform="translate(0.000000,559.000000) scale(0.100000,-0.100000)" fill="none" stroke="none">
    <path fill="#3b7de0" d="M4955 4960 c-292 -54 -550 -170 -811 -365 -152 -114 -263 -216 -514 -471 -207 -210 -321 -304 -387 -320 -33 -9 -29 -16 21 -42 96 -51 216 -184 264 -292 32 -73 53 -146 66 -225 l11 -73 54 96 c385 683 695 1024 1126 1240 400 200 855 216 1314 46 165 -61 397 -191 555 -311 l59 -45 -47 60 c-115 146 -351 351 -536 465 -176 108 -423 201 -625 237 -155 26 -405 27 -550 0z"/>
    <path fill="#3b7de0" d="M2763 4259 c-377 -44 -705 -278 -863 -615 -74 -158 -117 -384 -107 -565 33 -628 500 -1072 1127 -1072 580 0 1030 381 1116 946 29 194 6 446 -56 591 l-16 40 -96 -160 c-132 -220 -202 -345 -288 -514 -40 -80 -88 -167 -106 -195 -148 -226 -426 -337 -699 -280 -220 46 -410 220 -493 450 -6 17 -18 65 -27 107 -50 252 35 525 216 692 131 122 248 164 484 176 179 9 230 21 323 77 68 42 216 178 208 192 -9 15 -168 79 -249 100 -138 37 -316 48 -474 30z"/>
    <path fill="#3b7de0" d="M7395 4263 c-372 -31 -641 -179 -747 -411 -37 -80 -49 -144 -49 -257 0 -163 44 -271 152 -377 54 -53 90 -78 171 -117 139 -67 215 -90 473 -146 360 -77 458 -111 528 -183 61 -62 70 -154 23 -225 -146 -218 -812 -180 -1176 67 l-55 37 -36 -78 c-20 -43 -58 -122 -83 -177 -26 -54 -45 -105 -42 -112 13 -33 198 -131 337 -178 205 -69 390 -98 624 -98 211 0 353 23 495 80 196 77 331 212 392 389 26 76 30 99 30 202 -1 89 -5 131 -22 183 -42 135 -147 250 -294 321 -122 60 -248 95 -586 167 -153 32 -297 73 -342 96 -42 22 -97 73 -115 107 -20 39 -20 115 0 153 19 37 72 87 115 108 18 10 66 26 107 36 248 63 567 16 819 -122 53 -29 72 -35 78 -26 23 37 139 351 134 364 -7 18 -163 93 -266 127 -183 60 -449 88 -665 70z"/>
    <path fill="#3b7de0" d="M4498 4204 c-23 -20 -80 -70 -125 -112 l-83 -75 0 -84 0 -83 395 0 395 0 0 -905 0 -905 220 0 220 0 2 903 3 902 398 3 397 2 0 195 0 195 -889 0 -889 0 -44 -36z"/>
    <path fill="#3b7de0" d="M1790 1760 c0 -20 7 -20 3320 -20 3313 0 3320 0 3320 20 0 20 -7 20 -3320 20 -3313 0 -3320 0 -3320 -20z"/>
    <path fill="#3b7de0" d="M3309 1530 c-209 -37 -293 -301 -143 -455 97 -100 283 -113 384 -25 l35 30 -34 30 c-34 29 -35 29 -55 11 -36 -32 -66 -42 -121 -42 -109 0 -185 76 -185 187 0 59 19 103 63 141 61 53 167 58 230 10 l33 -25 34 29 35 29 -25 21 c-62 51 -162 75 -251 59z"/>
    <path fill="#3b7de0" d="M4008 1530 c-60 -10 -114 -43 -133 -80 -8 -16 -15 -51 -15 -77 1 -80 34 -108 180 -148 110 -31 132 -46 128 -89 -7 -69 -131 -85 -238 -32 -29 15 -53 25 -54 24 -9 -15 -26 -61 -26 -69 0 -6 26 -22 58 -37 49 -23 70 -27 147 -27 139 0 204 44 212 144 8 88 -44 134 -191 166 -112 25 -149 64 -108 114 32 40 147 46 212 11 28 -15 36 -13 48 15 19 42 15 50 -35 67 -63 22 -127 28 -185 18z"/>
    <path fill="#3b7de0" d="M4555 1531 c-81 -14 -161 -74 -201 -151 -27 -52 -25 -181 3 -236 65 -123 207 -180 348 -140 75 22 157 101 176 167 27 100 7 203 -55 276 -53 63 -174 100 -271 84z m168 -114 c70 -53 95 -152 58 -232 -25 -55 -61 -85 -120 -101 -142 -36 -255 79 -227 231 8 42 58 102 101 122 50 22 146 12 188 -20z"/>
    <path fill="#3b7de0" d="M6939 1530 c-175 -30 -271 -221 -193 -385 96 -204 417 -204 513 0 31 67 29 174 -5 243 -54 109 -179 165 -315 142z m147 -99 c50 -23 80 -63 95 -128 20 -87 -27 -183 -104 -212 -48 -19 -128 -13 -171 12 -81 46 -111 167 -63 257 43 82 151 113 243 71z"/>
    <path fill="#3b7de0" d="M8120 1531 c-56 -8 -116 -44 -135 -81 -19 -37 -19 -103 0 -139 17 -34 61 -56 179 -90 68 -20 94 -32 109 -53 19 -25 19 -28 4 -52 -35 -53 -144 -59 -238 -12 l-50 26 -15 -35 c-8 -19 -14 -37 -14 -40 0 -3 26 -18 58 -33 49 -23 70 -27 147 -27 70 0 99 4 130 20 55 27 85 76 85 135 0 80 -48 121 -184 154 -86 21 -123 40 -131 66 -9 28 18 68 51 76 42 11 158 -2 186 -20 25 -17 26 -17 41 21 14 35 14 39 -1 51 -34 26 -149 44 -222 33z"/>
    <path fill="#3b7de0" d="M2105 1462 c-30 -70 -45 -102 -144 -321 -34 -74 -61 -136 -61 -138 0 -2 23 -3 51 -1 l51 3 22 55 22 55 140 3 141 3 24 -61 24 -60 52 0 c29 0 53 2 53 3 0 2 -15 35 -33 73 -19 38 -73 156 -122 262 l-88 192 -51 0 -51 -1 -30 -67z m138 -154 l45 -108 -100 0 c-79 0 -99 3 -95 13 42 109 92 216 97 210 5 -4 28 -56 53 -115z"/>
    <path fill="#3b7de0" d="M2550 1264 l0 -266 183 4 c192 4 218 9 261 57 24 26 32 102 16 141 -7 17 -26 41 -42 54 l-30 23 23 27 c66 75 25 187 -78 215 -21 6 -104 11 -185 11 l-148 0 0 -266z m329 162 c27 -25 27 -64 -1 -93 -20 -21 -30 -23 -130 -23 l-108 0 0 71 0 71 109 -4 c90 -2 113 -6 130 -22z m15 -217 c34 -27 36 -79 4 -109 -19 -18 -35 -20 -140 -20 l-118 0 0 68 c0 38 3 72 7 75 3 4 54 7 113 7 93 0 111 -3 134 -21z"/>
    <path fill="#3b7de0" d="M5000 1265 l0 -265 190 0 190 0 0 40 0 39 -142 3 -143 3 -3 223 -2 222 -45 0 -45 0 0 -265z"/>
    <path fill="#3b7de0" d="M5440 1356 c0 -183 8 -227 51 -287 61 -87 253 -104 340 -32 64 54 73 88 77 301 l4 192 -51 0 -51 0 0 -180 c0 -202 -6 -227 -63 -256 -44 -24 -111 -22 -145 3 -54 40 -62 71 -62 261 l0 172 -50 0 -50 0 0 -174z"/>
    <path fill="#3b7de0" d="M5980 1490 l0 -40 90 0 90 0 0 -225 0 -225 45 0 45 0 2 223 3 222 88 3 87 3 0 39 0 40 -225 0 -225 0 0 -40z"/>
    <path fill="#3b7de0" d="M6510 1265 l0 -265 50 0 50 0 0 265 0 265 -50 0 -50 0 0 -265z"/>
    <path fill="#3b7de0" d="M7390 1265 l0 -265 45 0 45 0 0 175 c0 96 3 175 6 175 4 0 12 -6 18 -14 6 -8 69 -86 141 -175 l130 -161 42 0 43 0 0 265 0 265 -50 0 -50 0 -2 -177 -3 -177 -143 177 c-142 175 -143 177 -183 177 l-39 0 0 -265z"/>
  </g>
</svg>
